<?xml version="1.0" encoding="UTF-8" standalone="no" ?>
<!DOCTYPE svg PUBLIC "-//W3C//DTD SVG 1.1//EN" "http://www.w3.org/Graphics/SVG/1.1/DTD/svg11.dtd">
<svg xmlns="http://www.w3.org/2000/svg" xmlns:xlink="http://www.w3.org/1999/xlink" version="1.1" width="500" height="500" viewBox="0 0 500 500" xml:space="preserve">
<desc>Created with Fabric.js 5.3.0</desc>
<defs>
</defs>
<g transform="matrix(0.8710989959 0 0 0.8710989959 250 250)" id="MNAVuhcHoTlB7X4FQ4wpd"  >
<path style="stroke: none; stroke-width: 1; stroke-dasharray: none; stroke-linecap: butt; stroke-dashoffset: 0; stroke-linejoin: miter; stroke-miterlimit: 4; fill: rgb(255,255,255); fill-rule: evenodd; opacity: 1;"  transform=" translate(-500.0159131116, -499.9369112935)" d="M 762.4 546.2 C 762 553.5 761.5 560.8000000000001 759 567.7 C 758.4 569.3000000000001 757.4 570.5 756.6 571.9000000000001 C 756.2 572.5000000000001 755.8000000000001 572.9000000000001 755.2 572.6000000000001 C 754.5 572.3000000000002 754.4000000000001 571.7000000000002 754.5 570.9000000000001 C 755 567.6000000000001 755.2 564.2 755.3 560.9000000000001 C 755.5 545.9000000000001 752.5999999999999 531.5000000000001 747.4 517.6000000000001 C 742.4 504.0000000000001 735.1 491.70000000000016 727.6 479.5000000000001 C 721.8000000000001 470.2000000000001 715.5 461.4000000000001 707.9 453.5000000000001 C 707 452.5000000000001 706.5 451.2000000000001 705.1999999999999 450.60000000000014 C 704.8 450.90000000000015 704.9 451.3000000000001 705.0999999999999 451.60000000000014 C 715.8999999999999 467.8000000000001 723.9999999999999 485.40000000000015 729.8999999999999 504.0000000000001 C 732.1999999999998 511.5000000000001 734.3999999999999 518.9000000000001 735.5999999999999 526.6000000000001 C 736.5999999999999 533.1000000000001 737.4999999999999 539.7000000000002 736.9999999999999 546.3000000000002 C 736.6999999999999 550.7000000000002 736.0999999999999 555.0000000000002 735.0999999999999 559.3000000000002 C 733.9999999999999 563.8000000000002 733.5999999999999 568.5000000000002 732.5999999999999 573.0000000000002 C 730.4999999999999 582.5000000000002 726.8 591.4000000000002 722.3999999999999 600.0000000000002 C 718.7999999999998 607.0000000000002 714.3999999999999 613.7000000000003 709.2999999999998 619.7000000000003 C 701.7999999999998 628.4000000000003 693.3999999999999 636.1000000000003 683.8999999999999 642.7000000000003 C 674.8999999999999 648.9000000000003 665.2999999999998 654.0000000000002 655.7999999999998 659.2000000000003 C 643.3999999999999 665.9000000000003 630.5999999999998 671.6000000000003 617.1999999999998 675.8000000000003 C 606.6999999999998 679.2000000000003 596.0999999999998 681.8000000000003 585.2999999999998 683.7000000000003 C 579.0999999999998 684.7000000000003 572.8999999999999 685.4000000000003 566.6999999999998 686.1000000000003 C 556.0999999999998 687.3000000000003 545.4999999999998 688.1000000000003 534.7999999999998 687.8000000000003 Q 523.4999999999999 687.5000000000003 512.1999999999998 686.1000000000003 C 503.3999999999998 685.1000000000003 494.5999999999998 683.9000000000002 485.99999999999983 682.3000000000003 C 475.49999999999983 680.3000000000003 465.1999999999998 677.6000000000003 455.09999999999985 674.0000000000003 C 454.6999999999999 673.9000000000003 453.99999999999983 673.9000000000003 453.89999999999986 673.0000000000003 C 456.89999999999986 672.5000000000003 459.6999999999999 673.4000000000003 462.4999999999999 673.9000000000003 C 465.0999999999999 674.4000000000003 467.6999999999999 674.1000000000004 470.2999999999999 674.6000000000004 C 473.4999999999999 675.2000000000004 476.6999999999999 675.9000000000003 479.8999999999999 676.3000000000004 C 485.99999999999994 676.9000000000004 492.0999999999999 677.4000000000004 498.0999999999999 676.6000000000004 C 501.0999999999999 676.2000000000004 504.0999999999999 676.3000000000004 507.0999999999999 676.2000000000004 Q 516.1999999999999 675.7000000000004 525.1999999999999 674.6000000000004 C 532.4999999999999 673.8000000000004 539.8 672.5000000000003 546.9999999999999 671.2000000000004 C 569.0999999999999 667.1000000000004 587.8999999999999 656.2000000000004 605.6999999999999 643.1000000000004 C 607.9999999999999 641.4000000000003 610.0999999999999 639.6000000000004 612.3 637.8000000000004 Q 612.5 637.5000000000005 612.6999999999999 637.2000000000004 C 612.4 637.0000000000003 612.0999999999999 637.0000000000003 611.9 637.4000000000004 C 607.6 638.2000000000004 603.6999999999999 640.0000000000005 599.6999999999999 641.4000000000004 C 585.0999999999999 646.2000000000004 570.4 650.4000000000004 555.3 653.3000000000004 C 547.9 654.7000000000004 540.4 655.7000000000004 532.9 656.6000000000004 C 517.9 658.4000000000003 502.9 658.1000000000004 488 657.8000000000004 C 478 657.6000000000004 468.1 656.1000000000004 458.3 654.4000000000004 C 437.2 650.7000000000004 416.8 644.9000000000004 397 637.1000000000005 C 386.3 632.9000000000004 376.3 627.4000000000004 366.4 621.7000000000005 C 353.7 614.4000000000005 342.2 605.4000000000005 330.5 596.6000000000005 C 329.6 595.9000000000004 328.5 595.5000000000005 328 593.7000000000005 C 343.6 600.2000000000005 358.4 607.5000000000005 374.3 612.3000000000005 Q 370.7 610.2000000000005 367.1 608.0000000000006 Q 346.40000000000003 596.0000000000006 327.5 581.4000000000005 C 319.7 575.4000000000005 312.3 569.1000000000006 305.5 562.0000000000006 C 289.3 545.0000000000006 274.6 526.9000000000005 263.2 506.20000000000056 C 253.39999999999998 488.40000000000055 246.1 469.8000000000006 242 449.90000000000055 Q 239.9 439.8000000000005 238.8 429.50000000000057 C 238 421.90000000000055 237.60000000000002 414.3000000000006 237.5 406.6000000000006 C 237.4 399.4000000000006 237.9 392.2000000000006 238.8 385.1000000000006 C 238.9 384.00000000000057 238.3 383.1000000000006 238.3 382.00000000000057 C 238.5 378.90000000000055 238.20000000000002 375.8000000000006 239.20000000000002 372.3000000000006 C 239.70000000000002 374.20000000000056 240.8 375.20000000000056 241.20000000000002 376.8000000000006 C 245.20000000000002 392.00000000000057 248.60000000000002 407.3000000000006 254.9 421.8000000000006 C 257.1 426.8000000000006 260.1 431.3000000000006 262.8 436.00000000000057 C 261.90000000000003 433.3000000000006 261 430.6000000000006 260.1 427.90000000000055 C 257.20000000000005 418.70000000000056 255.40000000000003 409.20000000000056 253.3 399.8000000000005 C 252.20000000000002 394.5000000000005 251.10000000000002 389.3000000000005 250 384.0000000000005 C 249.8 383.10000000000053 249.3 382.0000000000005 250.2 381.60000000000053 C 251.29999999999998 381.20000000000056 251.6 382.40000000000055 252 383.20000000000056 Q 258.8 397.70000000000056 265.6 412.10000000000053 C 265.8 412.60000000000053 266 413.0000000000005 266.5 413.40000000000055 C 265.9 410.40000000000055 265.3 407.40000000000055 264.6 404.40000000000055 C 262.40000000000003 394.90000000000055 260.6 385.3000000000005 258.8 375.70000000000056 C 258.7 375.3000000000006 258.40000000000003 375.00000000000057 258.40000000000003 374.60000000000053 C 258.40000000000003 373.90000000000055 257.8 372.8000000000005 258.70000000000005 372.40000000000055 C 259.80000000000007 371.90000000000055 260.20000000000005 373.00000000000057 260.6 373.8000000000005 C 262.3 377.90000000000055 264.20000000000005 381.90000000000055 265.8 386.0000000000005 C 270 396.2000000000005 274.5 406.4000000000005 278.3 416.8000000000005 C 281.7 426.2000000000005 285 435.7000000000005 289.2 444.7000000000005 C 293.7 454.5000000000005 299.09999999999997 463.8000000000005 305 472.8000000000005 C 312.1 483.40000000000055 320 493.40000000000055 328.4 503.0000000000005 C 336.7 512.4000000000005 345.2 521.5000000000005 354.59999999999997 529.9000000000005 C 360.79999999999995 535.5000000000006 367.9 539.9000000000005 375.09999999999997 544.2000000000005 C 397.4 557.5000000000005 421.7 566.4000000000005 446.19999999999993 574.5000000000005 C 460.79999999999995 579.3000000000004 475.69999999999993 583.3000000000004 490.69999999999993 586.6000000000005 Q 499.99999999999994 588.6000000000005 509.3999999999999 589.9000000000004 C 518.8999999999999 591.3000000000004 528.4999999999999 592.2000000000004 538.0999999999999 592.7000000000004 C 547.5999999999999 593.3000000000004 557.0999999999999 593.0000000000003 566.5999999999999 593.0000000000003 C 578.8 593.0000000000003 590.1999999999999 589.3000000000003 601.6999999999999 585.8000000000003 C 615.6999999999999 581.5000000000003 629.3 576.0000000000003 641.5999999999999 567.8000000000003 C 643.9999999999999 566.2000000000003 646.1999999999999 564.6000000000003 648.0999999999999 562.3000000000003 C 650.5999999999999 559.3000000000003 653.5999999999999 556.7000000000003 656.8 554.2000000000003 C 660.9 550.9000000000003 663.5999999999999 546.2000000000003 666.3 541.7000000000003 C 671.5 533.3000000000003 676.1999999999999 524.5000000000002 680 515.3000000000003 C 681.3 512.0000000000003 681.3 508.6000000000003 681.7 505.3000000000003 C 683 496.1000000000003 681.3000000000001 487.2000000000003 679.3000000000001 478.3000000000003 C 676.9000000000001 467.1000000000003 672.5000000000001 456.7000000000003 667.1 446.7000000000003 C 665.3000000000001 443.40000000000026 662.8000000000001 440.7000000000003 660.4 437.8000000000003 C 654.6 430.7000000000003 648.5 423.7000000000003 641.8 417.3000000000003 C 630.3 406.5000000000003 618 396.8000000000003 604.1999999999999 389.1000000000003 C 588.5999999999999 380.5000000000003 571.9999999999999 374.4000000000003 555.1999999999999 368.70000000000033 C 543.8 364.80000000000035 532.1999999999999 361.6000000000003 520.4999999999999 358.80000000000035 C 510.5999999999999 356.50000000000034 500.6999999999999 354.4000000000004 490.6999999999999 353.20000000000033 C 483.7999999999999 352.30000000000035 476.9999999999999 351.4000000000003 469.9999999999999 350.9000000000003 C 462.9999999999999 350.50000000000034 455.89999999999986 349.70000000000033 448.7999999999999 350.20000000000033 C 441.3999999999999 350.6000000000003 433.9999999999999 350.9000000000003 426.6999999999999 351.80000000000035 C 415.6999999999999 353.20000000000033 404.7999999999999 354.80000000000035 394.2999999999999 358.30000000000035 C 381.0999999999999 362.60000000000036 369.0999999999999 369.10000000000036 359.6999999999999 379.60000000000036 C 352.7999999999999 387.30000000000035 348.59999999999985 396.60000000000036 346.2999999999999 406.7000000000004 C 344.8999999999999 412.3000000000004 344.5999999999999 417.9000000000004 344.9999999999999 423.60000000000036 C 345.4999999999999 430.60000000000036 347.5999999999999 437.2000000000004 350.5999999999999 443.50000000000034 Q 357.3999999999999 457.50000000000034 367.69999999999993 469.20000000000033 C 382.99999999999994 486.50000000000034 400.29999999999995 501.50000000000034 420.49999999999994 512.9000000000003 C 435.8999999999999 521.6000000000004 452.3999999999999 527.9000000000003 469.29999999999995 533.2000000000003 C 477.9 536.0000000000002 486.79999999999995 538.0000000000002 495.69999999999993 539.5000000000002 C 501.79999999999995 540.5000000000002 507.99999999999994 541.1000000000003 514.1999999999999 541.5000000000002 C 521.9 542.0000000000002 529.5999999999999 542.0000000000002 537.3 541.8000000000002 C 552.8 541.2000000000002 568.3 539.4000000000002 583 534.1000000000001 C 591.6 530.9000000000001 600.2 527.5000000000001 607.6 521.8000000000002 C 615.4 515.9000000000002 621 508.6000000000002 622.4 498.70000000000016 C 623.6 489.10000000000014 622.4 479.90000000000015 618.8 470.90000000000015 C 615 461.10000000000014 608.6999999999999 453.3000000000001 600.8 446.50000000000017 C 590.6999999999999 437.90000000000015 580 430.40000000000015 568 424.70000000000016 C 550.9 416.60000000000014 533.2 410.60000000000014 514.7 406.3000000000002 C 507.00000000000006 404.50000000000017 499.1 403.00000000000017 491.20000000000005 402.20000000000016 C 483.50000000000006 401.3000000000002 475.90000000000003 400.50000000000017 468.20000000000005 400.90000000000015 C 458.00000000000006 401.40000000000015 447.90000000000003 402.50000000000017 438.30000000000007 406.8000000000001 C 427.80000000000007 411.5000000000001 421.1000000000001 419.60000000000014 418.6000000000001 430.60000000000014 C 417.30000000000007 436.20000000000016 418.2000000000001 442.20000000000016 420.6000000000001 447.60000000000014 C 424.1000000000001 455.5000000000001 429.30000000000007 461.90000000000015 435.7000000000001 467.5000000000001 C 445.8000000000001 476.4000000000001 456.9000000000001 483.8000000000001 469.1000000000001 489.4000000000001 C 475.50000000000006 492.30000000000007 481.80000000000007 495.6000000000001 488.7000000000001 497.2000000000001 C 495.1000000000001 498.6000000000001 501.6000000000001 499.4000000000001 508.1000000000001 499.8000000000001 C 517.9000000000001 500.3000000000001 527.2 498.90000000000015 536.3000000000001 495.60000000000014 C 544.9000000000001 492.5000000000001 552.5000000000001 487.8000000000001 558.7 481.10000000000014 C 561.8000000000001 477.70000000000016 564.7 474.0000000000001 566.1 469.60000000000014 C 568.2 463.10000000000014 566.3000000000001 457.0000000000001 562.9 451.40000000000015 C 556 440.10000000000014 545.1999999999999 434.3000000000001 533.1 430.40000000000015 C 524.9 427.70000000000016 516.5 426.10000000000014 507.8 425.70000000000016 C 498.8 425.3000000000002 490 426.3000000000002 481.7 429.90000000000015 C 476.09999999999997 432.20000000000016 471.3 435.60000000000014 467.8 440.60000000000014 C 464 445.90000000000015 464.1 451.90000000000015 465.2 457.90000000000015 C 466.4 464.20000000000016 471.2 467.20000000000016 476 470.20000000000016 C 482.6 474.3000000000002 490 476.3000000000002 497.8 477.00000000000017 C 506.8 477.90000000000015 515.7 477.90000000000015 524.4 475.20000000000016 C 528.1 474.10000000000014 531.6 472.3000000000002 534.5 469.8000000000002 C 539.6 465.50000000000017 541.2 460.3000000000002 537.5 453.70000000000016 C 532.9 445.3000000000002 525.5 440.90000000000015 516 439.8000000000002 C 512.8 439.4000000000002 509.7 439.20000000000016 506.5 440.3000000000002 C 502.4 441.6000000000002 498.4 447.00000000000017 498.1 451.3000000000002 C 497.8 456.1000000000002 499.40000000000003 460.1000000000002 502.90000000000003 463.50000000000017 C 503.90000000000003 464.40000000000015 505.00000000000006 465.3000000000002 505.6 466.50000000000017 C 507.3 470.1000000000002 510.8 469.6000000000002 514.2 469.8000000000002 C 513.3000000000001 471.50000000000017 511.70000000000005 471.50000000000017 510.6 471.50000000000017 C 501.6 472.1000000000002 493.3 470.00000000000017 486 464.8000000000002 C 481.3 461.50000000000017 479.2 456.6000000000002 478.7 451.00000000000017 C 477.7 441.3000000000002 483.4 436.20000000000016 491.4 432.70000000000016 C 497.59999999999997 430.10000000000014 504 428.90000000000015 510.59999999999997 429.50000000000017 C 517.1999999999999 430.1000000000002 523.5 432.00000000000017 529.5999999999999 434.70000000000016 C 536.0999999999999 437.70000000000016 542.1999999999999 441.20000000000016 546.9999999999999 446.70000000000016 C 550.9999999999999 451.3000000000002 553.4999999999999 456.50000000000017 553.8999999999999 462.50000000000017 C 554.2999999999998 469.00000000000017 551.1999999999998 474.40000000000015 546.3999999999999 478.50000000000017 C 539.0999999999999 484.90000000000015 530.6999999999998 489.40000000000015 521.0999999999999 491.00000000000017 C 507.7999999999999 493.20000000000016 494.7999999999999 491.8000000000002 482.3999999999999 486.1000000000002 C 475.19999999999993 482.9000000000002 468.19999999999993 479.3000000000002 461.99999999999994 474.3000000000002 C 451.29999999999995 465.6000000000002 443.59999999999997 455.00000000000017 441.09999999999997 441.3000000000002 C 439.59999999999997 432.8000000000002 441.09999999999997 426.8000000000002 449.79999999999995 421.6000000000002 C 453.59999999999997 419.3000000000002 457.69999999999993 417.50000000000017 461.99999999999994 416.00000000000017 C 467.99999999999994 413.8000000000002 474.09999999999997 412.00000000000017 480.49999999999994 411.3000000000002 C 488.29999999999995 410.50000000000017 496.09999999999997 410.20000000000016 503.8999999999999 410.4000000000002 C 517.0999999999999 410.6000000000002 529.8 413.5000000000002 542.0999999999999 418.2000000000002 C 551.3999999999999 421.80000000000024 560.1999999999999 426.5000000000002 568.0999999999999 432.6000000000002 C 579.4999999999999 441.50000000000017 590.4999999999999 450.8000000000002 598.1999999999999 463.50000000000017 C 603.4 472.1000000000002 606.9 481.20000000000016 605.9999999999999 491.40000000000015 C 605.4999999999999 497.10000000000014 602.8999999999999 502.00000000000017 599.4999999999999 506.50000000000017 C 592.1999999999999 516.1000000000001 581.6999999999999 520.9000000000002 570.8999999999999 525.0000000000002 C 564.1999999999998 527.6000000000003 557.2999999999998 529.1000000000003 550.1999999999998 530.1000000000003 C 539.5999999999998 531.7000000000003 528.9999999999998 531.7000000000003 518.3999999999999 531.3000000000003 C 509.59999999999985 531.0000000000003 500.79999999999984 530.4000000000003 492.09999999999985 528.7000000000003 Q 474.89999999999986 525.2000000000003 458.6999999999999 518.5000000000002 C 445.6999999999999 513.1000000000003 433.1999999999999 506.5000000000002 421.6999999999999 498.30000000000024 C 412.9999999999999 492.2000000000002 405.09999999999985 485.30000000000024 397.9999999999999 477.40000000000026 C 392.1999999999999 471.0000000000003 386.89999999999986 464.30000000000024 382.5999999999999 456.90000000000026 C 377.0999999999999 447.60000000000025 372.7999999999999 437.90000000000026 370.7999999999999 427.40000000000026 C 369.2999999999999 419.2000000000003 370.6999999999999 411.30000000000024 373.2999999999999 403.5000000000003 C 377.0999999999999 392.0000000000003 385.1999999999999 384.1000000000003 394.6999999999999 377.2000000000003 C 406.59999999999985 368.60000000000025 419.7999999999999 362.90000000000026 434.1999999999999 359.7000000000003 C 443.09999999999985 357.7000000000003 452.2999999999999 357.3000000000003 461.4999999999999 357.90000000000026 C 471.39999999999986 358.40000000000026 481.1999999999999 359.80000000000024 491.0999999999999 361.7000000000003 C 497.9999999999999 363.0000000000003 505.0999999999999 363.60000000000025 511.9999999999999 365.0000000000003 C 524.7999999999998 367.6000000000003 537.1999999999999 371.2000000000003 549.3999999999999 375.7000000000003 C 562.6999999999998 380.5000000000003 575.6999999999998 386.0000000000003 588.1999999999998 392.7000000000003 C 598.2999999999998 398.0000000000003 607.6999999999998 404.5000000000003 616.5999999999998 411.60000000000025 C 623.4999999999998 416.90000000000026 629.6999999999998 422.90000000000026 635.4999999999998 429.30000000000024 C 645.7999999999997 440.60000000000025 655.3999999999997 452.40000000000026 661.5999999999998 466.60000000000025 C 665.7999999999998 476.0000000000002 667.7999999999998 485.90000000000026 666.6999999999998 496.10000000000025 C 665.4999999999998 507.2000000000003 661.4999999999998 517.4000000000002 655.6999999999998 526.9000000000002 C 650.4999999999998 535.4000000000002 644.6999999999998 543.4000000000002 637.3999999999999 550.1000000000003 C 627.9999999999999 558.9000000000002 617.0999999999999 565.6000000000003 605.3999999999999 570.8000000000003 C 595.3999999999999 575.3000000000003 584.9999999999999 578.4000000000003 574.0999999999999 580.0000000000003 C 568.8999999999999 580.8000000000003 563.5999999999999 581.4000000000003 558.3999999999999 581.8000000000003 C 549.9999999999999 582.5000000000003 541.6999999999998 582.8000000000003 533.2999999999998 582.2000000000003 C 527.9999999999999 581.8000000000003 522.5999999999998 581.0000000000002 517.2999999999998 580.2000000000003 C 511.59999999999985 579.3000000000003 505.89999999999986 578.1000000000003 500.09999999999985 577.2000000000003 C 486.39999999999986 575.1000000000003 472.89999999999986 571.9000000000003 459.59999999999985 567.9000000000003 Q 431.59999999999985 559.5000000000003 405.89999999999986 545.8000000000003 C 394.29999999999984 539.7000000000003 383.1999999999999 532.5000000000003 372.6999999999999 524.6000000000003 C 361.09999999999985 515.9000000000002 350.7999999999999 505.80000000000024 340.7999999999999 495.30000000000024 C 329.6999999999999 483.5000000000002 320.1999999999999 470.60000000000025 313.4999999999999 455.80000000000024 C 308.7999999999999 445.60000000000025 305.2999999999999 434.90000000000026 303.2999999999999 423.90000000000026 C 302.3999999999999 418.7000000000003 301.9999999999999 413.40000000000026 301.8999999999999 408.10000000000025 C 301.7999999999999 391.80000000000024 306.7999999999999 377.10000000000025 315.3999999999999 363.5000000000002 C 320.99999999999994 354.5000000000002 327.5999999999999 346.4000000000002 335.49999999999994 339.4000000000002 C 342.69999999999993 332.8000000000002 351.09999999999997 327.9000000000002 359.99999999999994 323.8000000000002 C 364.99999999999994 321.6000000000002 369.99999999999994 319.20000000000016 375.3999999999999 318.1000000000002 C 377.69999999999993 317.6000000000002 379.2999999999999 318.2000000000002 379.7999999999999 320.2000000000002 C 380.0999999999999 321.30000000000024 380.8999999999999 320.6000000000002 381.1999999999999 320.5000000000002 C 386.1999999999999 318.9000000000002 391.2999999999999 317.80000000000024 396.4999999999999 316.80000000000024 Q 404.1999999999999 315.2000000000002 411.9999999999999 314.2000000000002 C 419.5999999999999 313.30000000000024 427.0999999999999 312.80000000000024 434.6999999999999 312.30000000000024 C 441.1999999999999 311.90000000000026 447.6999999999999 312.0000000000002 454.09999999999985 312.10000000000025 C 460.49999999999983 312.2000000000003 466.79999999999984 312.7000000000003 473.09999999999985 313.40000000000026 C 490.29999999999984 315.40000000000026 507.1999999999999 318.7000000000003 523.7999999999998 323.60000000000025 C 547.2999999999998 330.5000000000002 569.8999999999999 339.80000000000024 591.5999999999998 351.30000000000024 C 593.0999999999998 352.10000000000025 594.4999999999998 351.40000000000026 595.9999999999998 351.7000000000002 C 612.3999999999997 354.6000000000002 627.1999999999998 361.6000000000002 641.6999999999998 369.2000000000002 C 653.1999999999998 375.1000000000002 664.0999999999998 381.9000000000002 674.3999999999999 389.7000000000002 C 680.8999999999999 394.7000000000002 687.1999999999998 399.80000000000024 692.9999999999999 405.5000000000002 C 694.0999999999999 406.5000000000002 695.2999999999998 407.4000000000002 696.3999999999999 408.5000000000002 C 706.7999999999998 418.7000000000002 716.1999999999998 429.7000000000002 724.5999999999999 441.60000000000025 C 732.0999999999999 452.2000000000003 739.0999999999999 463.2000000000003 744.8 474.90000000000026 C 751.3 488.2000000000003 756.4 501.90000000000026 759.5999999999999 516.3000000000003 C 760.8 521.8000000000003 761.5999999999999 527.5000000000003 762.0999999999999 533.2000000000003 C 762.4999999999999 537.5000000000002 762.6999999999999 541.9000000000003 762.3999999999999 546.2000000000003 z M 643.6999999999999 486.40000000000003 C 643.8 487.40000000000003 643.9999999999999 488.70000000000005 645.1999999999999 488.70000000000005 C 646.5999999999999 488.80000000000007 646.6999999999999 487.40000000000003 646.9 486.30000000000007 C 647.1 484.9000000000001 646.1 485.20000000000005 645 485.20000000000005 C 644.4 485.1 643.5 485.20000000000005 643.7 486.40000000000003 z M 641.4999999999999 479.50000000000006 C 641.4999999999999 480.20000000000005 641.7999999999998 481.20000000000005 642.5999999999999 481.20000000000005 C 643.4999999999999 481.1 644.0999999999999 480.40000000000003 644.0999999999999 479.50000000000006 C 644.1999999999999 478.6000000000001 643.4999999999999 478.40000000000003 642.8 478.40000000000003 C 642 478.40000000000003 641.4 478.70000000000005 641.5 479.50000000000006 z M 401.89999999999986 398.30000000000007 Q 401.59999999999985 398.50000000000006 401.29999999999984 398.70000000000005 C 396.89999999999986 403.80000000000007 394.1999999999998 409.6 394.29999999999984 416.50000000000006 C 394.29999999999984 420.1000000000001 394.49999999999983 423.70000000000005 395.29999999999984 427.20000000000005 C 396.1999999999998 431.30000000000007 397.29999999999984 435.40000000000003 399.1999999999998 439.20000000000005 C 399.49999999999983 434.00000000000006 397.5999999999998 429.00000000000006 397.29999999999984 423.80000000000007 C 396.99999999999983 419.20000000000005 397.59999999999985 414.80000000000007 398.1999999999998 410.4000000000001 C 398.6999999999998 406.4000000000001 400.3999999999998 402.80000000000007 401.5999999999998 399.1000000000001 C 402.0999999999998 398.9000000000001 402.0999999999998 398.7000000000001 401.8999999999998 398.30000000000007 z M 489.29999999999984 461.00000000000006 C 486.49999999999983 457.70000000000005 484.99999999999983 454.40000000000003 483.79999999999984 450.90000000000003 C 483.99999999999983 455.00000000000006 486.29999999999984 459.70000000000005 489.29999999999984 461.00000000000006 z M 490.09999999999985 461.90000000000003 C 489.79999999999984 461.70000000000005 489.59999999999985 461.6 489.49999999999983 461.50000000000006 C 489.1999999999998 461.30000000000007 489.1999999999998 461.6000000000001 489.09999999999985 461.80000000000007 C 489.09999999999985 461.9000000000001 489.29999999999984 462.00000000000006 489.39999999999986 462.00000000000006 C 489.59999999999985 462.1000000000001 489.79999999999984 462.00000000000006 490.09999999999985 461.90000000000003 z M 498.59999999999985 439.00000000000006 C 496.09999999999985 439.1000000000001 494.09999999999985 440.40000000000003 491.99999999999983 441.6000000000001 C 490.6999999999998 442.4000000000001 489.6999999999998 443.30000000000007 489.59999999999985 444.9000000000001 C 489.39999999999986 446.7000000000001 490.89999999999986 450.6000000000001 492.09999999999985 452.2000000000001 C 492.89999999999986 447.1000000000001 495.1999999999999 442.8000000000001 498.59999999999985 439.0000000000001 z M 498.89999999999986 438.6000000000001 C 498.89999999999986 438.6000000000001 498.79999999999984 438.50000000000006 498.6999999999999 438.6000000000001 Q 498.4999999999999 438.7000000000001 498.59999999999985 438.9000000000001 Q 498.79999999999984 438.80000000000007 498.89999999999986 438.6000000000001 z M 463.59999999999985 425.9000000000001 C 463.1999999999999 425.7000000000001 462.89999999999986 425.80000000000007 462.79999999999984 426.2000000000001 C 455.99999999999983 428.2000000000001 452.29999999999984 430.2000000000001 453.99999999999983 443.2000000000001 C 455.6999999999998 436.6000000000001 458.6999999999998 431.2000000000001 463.09999999999985 426.5000000000001 Q 463.39999999999986 426.2000000000001 463.59999999999985 425.9000000000001 z M 558.4999999999999 492.80000000000007 C 558.8999999999999 492.9000000000001 559.1999999999999 492.9000000000001 559.3999999999999 492.50000000000006 C 565.7999999999998 490.40000000000003 570.9999999999999 486.6000000000001 575.3999999999999 481.6000000000001 C 577.8999999999999 478.7000000000001 578.2999999999998 475.00000000000006 578.6999999999998 471.50000000000006 C 579.2999999999998 467.1000000000001 578.8999999999999 462.80000000000007 576.1999999999998 458.90000000000003 C 575.7999999999998 470.70000000000005 575.3999999999999 472.3 569.7999999999998 480.6 C 566.7999999999998 485 563.0999999999998 488.70000000000005 558.9999999999999 492.20000000000005 Q 558.7999999999998 492.50000000000006 558.4999999999999 492.80000000000007 z M 489.7999999999999 515.5000000000001 C 498.1999999999999 518.2000000000002 506.8999999999999 518.9000000000001 515.4999999999999 519.5000000000001 C 521.9999999999999 520.0000000000001 528.4999999999999 520.2000000000002 535.0999999999999 519.8000000000001 C 543.6999999999999 519.2 552.0999999999999 518.1 560.3 515.5000000000001 C 570 512.4000000000001 579.5999999999999 508.8000000000001 586.3 500.2000000000001 C 589 496.8000000000001 591.3 493.4000000000001 590.6999999999999 488.6000000000001 C 590.4 486.30000000000007 590.4999999999999 483.9000000000001 589.4999999999999 481.4000000000001 C 588.5999999999999 485.7000000000001 586.2999999999998 489.0000000000001 584.2999999999998 492.5000000000001 C 580.1999999999998 499.60000000000014 574.9999999999999 505.7000000000001 567.5999999999998 509.7000000000001 C 555.9999999999998 516.0000000000001 543.2999999999998 518.0000000000001 530.2999999999998 518.7 Q 521.0999999999998 519.1 511.79999999999984 518.3000000000001 C 506.99999999999983 517.8000000000001 502.1999999999998 517.4000000000001 497.39999999999986 516.6 C 494.89999999999986 516.1 492.39999999999986 515.9 489.79999999999984 515.5 z M 557.5999999999999 493.10000000000014 Q 557.8 493.20000000000016 557.8999999999999 493.20000000000016 Q 557.8999999999999 493.20000000000016 557.9999999999999 493.10000000000014 C 557.8999999999999 493.0000000000001 557.8999999999999 492.90000000000015 557.7999999999998 492.90000000000015 C 557.6999999999998 492.90000000000015 557.6999999999998 493.00000000000017 557.5999999999998 493.10000000000014 z M 453.69999999999993 375.5000000000001 C 450.79999999999995 375.4000000000001 448.69999999999993 376.10000000000014 446.49999999999994 376.4000000000001 C 439.09999999999997 377.30000000000007 432.19999999999993 379.6000000000001 425.99999999999994 383.7000000000001 C 419.8999999999999 387.6000000000001 414.49999999999994 392.4000000000001 411.09999999999997 399.0000000000001 C 410.59999999999997 399.10000000000014 410.59999999999997 399.4000000000001 410.79999999999995 399.8000000000001 Q 411.09999999999997 399.60000000000014 411.4 399.40000000000015 C 415.09999999999997 395.00000000000017 419.09999999999997 391.00000000000017 423.9 387.70000000000016 C 432.79999999999995 381.50000000000017 442.79999999999995 378.40000000000015 453.7 375.50000000000017 z M 468.19999999999993 383.5000000000001 C 468.29999999999995 382.2000000000001 467.79999999999995 381.8000000000001 466.69999999999993 381.8000000000001 C 465.8999999999999 381.8000000000001 464.99999999999994 381.90000000000015 465.0999999999999 382.90000000000015 C 465.19999999999993 384.00000000000017 465.69999999999993 385.3000000000001 466.8999999999999 385.3000000000001 C 467.8999999999999 385.40000000000015 467.8999999999999 384.10000000000014 468.19999999999993 383.5000000000001 z M 475.99999999999994 375.8000000000001 C 475.99999999999994 375.10000000000014 475.59999999999997 374.90000000000015 474.99999999999994 375.0000000000001 C 474.49999999999994 375.0000000000001 474.09999999999997 375.0000000000001 474.09999999999997 375.7000000000001 C 474.2 376.5000000000001 474.79999999999995 377.0000000000001 475.29999999999995 377.1000000000001 C 475.69999999999993 377.2000000000001 475.99999999999994 376.4000000000001 475.99999999999994 375.80000000000007 z M 565.4 394.5000000000001 C 565.5 395.3000000000001 566 396.60000000000014 566.9 396.60000000000014 C 567.6 396.5000000000001 568.4 395.5000000000001 568.4 394.40000000000015 C 568.4 393.3000000000001 567.6999999999999 393.10000000000014 566.8 393.10000000000014 C 565.8 393.10000000000014 565.1999999999999 393.70000000000016 565.4 394.5000000000001 z M 554.8 393.8000000000001 C 554.6999999999999 392.90000000000015 554.1999999999999 392.7000000000001 553.4 392.7000000000001 C 552.5 392.7000000000001 551.6 392.7000000000001 551.6999999999999 393.9000000000001 C 551.6999999999999 394.80000000000007 552.1999999999999 395.80000000000007 553.1999999999999 395.9000000000001 C 554.4999999999999 396.0000000000001 554.0999999999999 394.4000000000001 554.8 393.80000000000007 z M 608.4 436.60000000000014 C 593.1999999999999 421.8000000000001 574.5 413.70000000000016 554.6 407.70000000000016 C 573.4 415.60000000000014 592 424.20000000000016 608.4 436.60000000000014 z M 609.8 437.60000000000014 C 609.5999999999999 437.40000000000015 609.5 437.20000000000016 609.4 437.10000000000014 C 609.1999999999999 437.20000000000016 609 437.3000000000001 609.1 437.3000000000001 C 609.1 437.5000000000001 609.2 437.7000000000001 609.3000000000001 437.90000000000015 C 609.5000000000001 437.8000000000001 609.6 437.70000000000016 609.8000000000001 437.60000000000014 z M 515.6999999999999 561.8000000000002 C 516.8 562.5000000000002 517.6999999999999 562.1000000000001 518.4999999999999 562.3000000000002 C 523.9999999999999 563.5000000000002 529.5999999999999 564.2000000000002 535.1999999999999 564.4000000000002 C 542.9 564.7000000000002 550.6999999999999 564.7000000000002 558.4 563.7000000000002 C 565.1 562.9000000000002 571.8 562.1000000000001 578.3 560.3000000000002 C 600.1999999999999 554.4000000000002 619.9 544.4000000000002 635.5 527.5000000000002 C 636.7 526.3000000000002 637.9 525.0000000000002 638.5 523.2000000000003 C 636.1 525.1000000000003 633.8 527.2000000000003 631.4 529.1000000000003 C 620.3 537.6000000000003 608.1 544.1000000000003 595.3 549.5000000000002 C 577.9 557.0000000000002 559.3 559.7000000000003 540.5999999999999 561.3000000000002 C 533.0999999999999 561.9000000000002 525.6999999999999 561.9000000000002 518.1999999999999 561.8000000000002 C 517.4999999999999 561.8000000000002 516.8 561.8000000000002 515.6999999999999 561.8000000000002 z M 398.79999999999995 509.70000000000016 C 398.9 510.3000000000002 399.09999999999997 510.8000000000002 399.9 511.10000000000014 C 400.29999999999995 510.70000000000016 400.7 510.5000000000001 400.7 509.70000000000016 C 400.7 509.20000000000016 400.7 508.70000000000016 399.9 508.70000000000016 C 399.2 508.8000000000002 398.79999999999995 508.8000000000002 398.79999999999995 509.70000000000016 z M 397.99999999999994 520.2000000000002 C 398.19999999999993 520.6000000000001 398.19999999999993 521.4000000000002 398.99999999999994 521.5000000000001 C 399.3999999999999 521.2000000000002 399.79999999999995 520.9000000000001 399.79999999999995 520.2000000000002 C 399.69999999999993 519.6000000000001 399.29999999999995 519.3000000000002 398.79999999999995 519.3000000000002 C 398.29999999999995 519.3000000000002 397.79999999999995 519.7000000000002 397.99999999999994 520.2000000000002 z M 389.3999999999999 510.70000000000016 C 389.5999999999999 511.90000000000015 389.7999999999999 513.7000000000002 391.3999999999999 513.7000000000002 C 392.7999999999999 513.7000000000002 393.19999999999993 512.0000000000001 393.2999999999999 510.8000000000002 C 393.5999999999999 509.6000000000002 392.2999999999999 509.70000000000016 391.3999999999999 509.70000000000016 C 390.5999999999999 509.70000000000016 389.2999999999999 509.40000000000015 389.3999999999999 510.70000000000016 z M 331.3999999999999 447.90000000000015 C 331.0999999999999 447.00000000000017 330.8999999999999 446.10000000000014 330.5999999999999 445.20000000000016 C 327.5999999999999 436.8000000000002 325.69999999999993 428.10000000000014 324.8999999999999 419.20000000000016 C 324.5999999999999 415.70000000000016 324.69999999999993 412.3000000000002 324.3999999999999 408.20000000000016 C 320.7999999999999 422.90000000000015 323.5999999999999 436.00000000000017 331.0999999999999 448.20000000000016 Q 331.2999999999999 448.50000000000017 331.5999999999999 448.8000000000002 C 331.8999999999999 448.4000000000002 331.7999999999999 448.1000000000002 331.3999999999999 447.9000000000002 z M 379.2999999999999 329.10000000000014 C 367.5999999999999 332.90000000000015 356.6999999999999 338.20000000000016 346.9999999999999 345.90000000000015 C 339.7999999999999 351.70000000000016 333.4999999999999 358.3000000000001 328.4999999999999 366.20000000000016 C 321.39999999999986 377.50000000000017 316.89999999999986 389.70000000000016 315.1999999999999 402.90000000000015 C 314.9999999999999 403.40000000000015 314.7999999999999 403.90000000000015 315.39999999999986 404.50000000000017 C 315.39999999999986 403.90000000000015 315.39999999999986 403.50000000000017 315.39999999999986 403.1000000000002 C 315.79999999999984 403.1000000000002 315.79999999999984 402.8000000000002 315.89999999999986 402.50000000000017 C 320.6999999999999 385.70000000000016 329.1999999999999 371.1000000000002 340.79999999999984 358.1000000000002 C 351.39999999999986 346.3000000000002 363.79999999999984 336.9000000000002 378.1999999999998 330.1000000000002 C 378.5999999999998 329.9000000000002 379.5999999999998 330.00000000000017 379.29999999999984 329.1000000000002 z M 358.2999999999999 365.20000000000016 C 358.3999999999999 364.60000000000014 357.6999999999999 364.3000000000002 357.1999999999999 364.20000000000016 C 356.4999999999999 364.00000000000017 356.09999999999985 364.70000000000016 356.09999999999985 365.3000000000002 C 355.99999999999983 365.9000000000002 356.29999999999984 366.70000000000016 357.09999999999985 366.8000000000002 C 357.99999999999983 366.9000000000002 357.99999999999983 366.00000000000017 358.29999999999984 365.20000000000016 z M 380.8999999999999 329.20000000000016 C 379.99999999999994 328.60000000000014 379.69999999999993 328.8000000000002 379.2999999999999 329.00000000000017 C 379.6999999999999 329.70000000000016 380.0999999999999 329.1000000000002 380.8999999999999 329.20000000000016 z M 419.69999999999993 333.10000000000014 C 419.5999999999999 332.20000000000016 419.0999999999999 331.5000000000001 417.99999999999994 331.5000000000001 C 417.19999999999993 331.5000000000001 416.49999999999994 331.7000000000001 416.59999999999997 332.60000000000014 C 416.59999999999997 333.70000000000016 417.59999999999997 334.10000000000014 418.49999999999994 334.60000000000014 C 418.99999999999994 334.20000000000016 419.69999999999993 333.90000000000015 419.69999999999993 333.10000000000014 z M 426.49999999999994 329.20000000000016 C 426.59999999999997 328.40000000000015 426.19999999999993 327.90000000000015 425.3999999999999 327.90000000000015 C 424.69999999999993 327.8000000000001 424.2999999999999 328.00000000000017 424.19999999999993 328.8000000000001 C 424.19999999999993 329.7000000000001 424.79999999999995 330.3000000000001 425.3999999999999 330.40000000000015 C 425.7999999999999 330.50000000000017 426.3999999999999 329.8000000000001 426.49999999999994 329.20000000000016 z M 512.9 338.70000000000016 C 495 333.50000000000017 457.59999999999997 330.00000000000017 446.79999999999995 332.3000000000002 C 468.99999999999994 332.3000000000002 490.99999999999994 334.6000000000002 512.9 338.70000000000016 z M 515.3 338.70000000000016 C 514.5999999999999 338.8000000000002 514.0999999999999 338.50000000000017 513.5 339.10000000000014 C 514.1 339.10000000000014 514.6 339.40000000000015 515.3 338.70000000000016 z M 608.3 360.00000000000017 C 608.3 359.70000000000016 608.0999999999999 359.6000000000002 607.8 359.6000000000002 C 607.6999999999999 359.7000000000002 607.5999999999999 359.8000000000002 607.5999999999999 359.9000000000002 C 607.8 360.1000000000002 607.9999999999999 360.4000000000002 608.3 360.0000000000002 z M 619 364.6000000000002 Q 613.7 362.3000000000002 608.3 360.1000000000002 C 608.1999999999999 360.6000000000002 608.8 360.7000000000002 609 360.9000000000002 C 611.4 362.3000000000002 614 363.5000000000002 616.2 365.2000000000002 C 617.6 366.2000000000002 618.2 365.9000000000002 619 364.6000000000002 z M 625.2 379.1000000000002 C 624.2 379.1000000000002 623.2 379.00000000000017 623.4000000000001 380.2000000000002 C 623.5000000000001 381.1000000000002 623.8000000000001 382.30000000000024 625.1000000000001 382.2000000000002 C 626.1000000000001 382.1000000000002 626.3000000000002 381.0000000000002 626.5000000000001 380.2000000000002 C 626.7000000000002 378.9000000000002 625.8000000000001 379.1000000000002 625.2000000000002 379.1000000000002 z M 632.8000000000001 390.7000000000002 C 632.7 389.6000000000002 631.8000000000001 389.5000000000002 631.0000000000001 389.5000000000002 C 629.9000000000001 389.5000000000002 629.4000000000001 390.2000000000002 629.7000000000002 391.10000000000025 C 629.9000000000002 391.90000000000026 630.0000000000001 393.10000000000025 631.4000000000002 393.2000000000003 C 632.4000000000002 392.7000000000003 632.9000000000002 391.8000000000003 632.8000000000002 390.7000000000003 z M 635.3000000000001 381.1000000000002 C 635.1 380.7000000000002 633.9000000000001 380.6000000000002 633.5000000000001 381.1000000000002 C 632.7000000000002 382.00000000000017 633.8000000000001 382.50000000000017 634.5000000000001 383.2000000000002 C 634.9000000000001 382.5000000000002 635.9000000000001 381.9000000000002 635.3000000000001 381.1000000000002 z M 268.30000000000007 449.20000000000016 C 268.4000000000001 447.90000000000015 267.4000000000001 448.00000000000017 266.70000000000005 447.90000000000015 C 265.90000000000003 447.8000000000001 265.40000000000003 448.10000000000014 265.6 449.00000000000017 C 265.70000000000005 450.00000000000017 266 451.00000000000017 266.90000000000003 451.1000000000002 C 268.00000000000006 451.1000000000002 267.90000000000003 449.8000000000002 268.3 449.2000000000002 z M 271.50000000000006 460.20000000000016 C 271.40000000000003 459.40000000000015 271.20000000000005 458.90000000000015 270.30000000000007 458.90000000000015 C 269.6000000000001 458.90000000000015 269.1000000000001 459.20000000000016 269.20000000000005 460.00000000000017 C 269.30000000000007 460.8000000000002 269.6 461.50000000000017 270.30000000000007 462.00000000000017 C 270.9000000000001 461.50000000000017 271.50000000000006 461.1000000000002 271.50000000000006 460.20000000000016 z M 276.80000000000007 451.50000000000017 C 276.50000000000006 450.40000000000015 275.4000000000001 450.70000000000016 274.70000000000005 450.50000000000017 C 274.1 450.40000000000015 273.00000000000006 450.70000000000016 273.30000000000007 451.8000000000002 C 273.6000000000001 452.8000000000002 273.9000000000001 454.3000000000002 275.1000000000001 454.20000000000016 C 276.4000000000001 454.20000000000016 276.2000000000001 452.50000000000017 276.80000000000007 451.50000000000017 z M 281.00000000000006 501.90000000000015 C 281.1000000000001 501.20000000000016 280.70000000000005 500.8000000000001 280.1000000000001 500.60000000000014 Q 280.00000000000006 500.20000000000016 279.9000000000001 499.90000000000015 Q 279.5000000000001 499.60000000000014 279.2000000000001 499.20000000000016 C 279.1000000000001 499.00000000000017 279.1000000000001 498.8000000000002 278.9000000000001 498.90000000000015 C 278.80000000000007 498.90000000000015 278.9000000000001 499.3000000000001 278.9000000000001 499.40000000000015 Q 279.2000000000001 499.8000000000001 279.6000000000001 500.20000000000016 Q 279.7000000000001 500.50000000000017 279.80000000000007 500.8000000000002 C 280.20000000000005 501.3000000000002 280.30000000000007 501.9000000000002 281.00000000000006 501.9000000000002 z M 281.00000000000006 502.00000000000017 C 280.70000000000005 502.8000000000002 281.40000000000003 502.90000000000015 281.80000000000007 503.6000000000002 C 282.00000000000006 502.50000000000017 281.50000000000006 502.2000000000002 281.00000000000006 502.00000000000017 z M 283.90000000000003 505.70000000000016 Q 283.70000000000005 505.40000000000015 283.50000000000006 505.20000000000016 C 283.40000000000003 505.20000000000016 283.20000000000005 505.3000000000002 283.20000000000005 505.40000000000015 C 283.20000000000005 505.70000000000016 283.30000000000007 506.00000000000017 283.6 506.00000000000017 C 283.70000000000005 505.90000000000015 283.8 505.8000000000002 283.90000000000003 505.70000000000016 z M 286.6 509.50000000000017 C 286.6 509.1000000000002 286.40000000000003 508.8000000000002 286 508.8000000000002 C 286 507.8000000000002 285.3 507.3000000000002 284.6 506.9000000000002 Q 284.5 506.5000000000002 284.40000000000003 506.1000000000002 C 284.40000000000003 506.1000000000002 284.20000000000005 506.1000000000002 284.00000000000006 506.2000000000002 Q 284.20000000000005 506.7000000000002 284.30000000000007 507.2000000000002 Q 285.00000000000006 508.0000000000002 285.70000000000005 508.9000000000002 C 285.90000000000003 509.2000000000002 285.90000000000003 509.6000000000002 286.40000000000003 509.6000000000002 C 286.50000000000006 509.6000000000002 286.6 509.6000000000002 286.6 509.50000000000017 z M 287.3 510.20000000000016 C 287.3 510.00000000000017 287.2 509.8000000000002 287.1 509.60000000000014 C 286.90000000000003 509.8000000000001 286.70000000000005 509.90000000000015 286.70000000000005 509.90000000000015 C 286.80000000000007 510.10000000000014 286.90000000000003 510.3000000000001 287.00000000000006 510.50000000000017 C 287.1000000000001 510.40000000000015 287.30000000000007 510.3000000000002 287.30000000000007 510.20000000000016 z M 302.3 527.8000000000002 Q 302.3 527.8000000000002 302.3 527.8000000000002 Q 302.1 527.7000000000002 301.90000000000003 527.5000000000002 C 301.90000000000003 527.6000000000003 301.90000000000003 527.7000000000003 301.90000000000003 527.7000000000003 Q 302.1 528.0000000000002 302.3 527.8000000000003 z M 303.90000000000003 529.6000000000001 C 303.70000000000005 528.8000000000002 303.3 528.5000000000001 302.8 528.2000000000002 Q 302.7 527.8000000000002 302.3 527.8000000000002 C 302 528.1000000000001 302.3 528.3000000000002 302.40000000000003 528.5000000000002 C 302.8 528.9000000000002 303.1 529.6000000000003 303.90000000000003 529.6000000000003 z M 307.3 532.8000000000002 C 307.2 532.4000000000002 306.8 532.0000000000002 306.6 532.2000000000002 C 306 532.7000000000002 306.8 532.8000000000002 307 533.1000000000001 C 307.3 533.3000000000002 307.5 533.9000000000001 307.8 533.6000000000001 C 308.2 533.2000000000002 307.7 533.0000000000001 307.3 532.8000000000002 z M 572.3 626.4000000000002 C 567.5 626.7000000000002 562.5999999999999 627.5000000000002 557.8 628.1000000000003 C 551 629.0000000000002 544.0999999999999 629.6000000000003 537.1999999999999 629.7000000000003 C 526.8 629.9000000000003 516.3 630.0000000000002 505.79999999999995 629.0000000000002 C 500.69999999999993 628.5000000000002 495.49999999999994 628.1000000000003 490.4 627.5000000000002 C 482.79999999999995 626.4000000000002 475.2 624.8000000000002 467.59999999999997 623.1000000000003 C 447.9 618.5000000000002 428.99999999999994 611.6000000000003 410.49999999999994 603.5000000000002 C 401.29999999999995 599.3000000000002 392.09999999999997 595.0000000000002 383.29999999999995 590.0000000000002 C 372.99999999999994 584.3000000000002 363.19999999999993 578.0000000000002 353.9 571.0000000000002 C 348.59999999999997 567.1000000000003 343.79999999999995 562.6000000000003 338.7 558.7000000000003 C 330.59999999999997 552.5000000000002 322.7 546.1000000000003 315.09999999999997 539.4000000000003 C 312.99999999999994 537.6000000000004 310.9 535.8000000000003 308.49999999999994 533.7000000000003 C 308.49999999999994 535.1000000000003 309.29999999999995 535.5000000000002 309.79999999999995 535.9000000000003 C 316.09999999999997 542.1000000000004 322.69999999999993 548.2000000000003 329.49999999999994 553.9000000000003 C 335.09999999999997 558.6000000000004 340.59999999999997 563.3000000000003 346.59999999999997 567.4000000000003 C 353.49999999999994 572.1000000000004 360.29999999999995 577.0000000000003 367.2 581.7000000000003 C 383.59999999999997 592.9000000000003 401.09999999999997 602.0000000000002 419.4 609.7000000000003 C 433 615.5000000000002 447 620.1000000000003 461.29999999999995 624.0000000000002 C 470.49999999999994 626.5000000000002 479.69999999999993 628.7000000000003 489.09999999999997 630.3000000000002 C 495.49999999999994 631.4000000000002 501.79999999999995 633.1000000000001 508.4 633.0000000000002 C 516.4 632.8000000000002 524.4 633.2000000000003 532.4 632.6000000000003 C 538.3 632.2000000000003 544.3 632.0000000000002 550.1999999999999 631.7000000000003 C 557.9999999999999 631.3000000000003 564.9999999999999 628.4000000000003 572.3 626.4000000000003 z M 380.29999999999995 564.0000000000002 C 380.49999999999994 564.9000000000002 380.9 566.2000000000003 381.99999999999994 566.3000000000002 C 382.99999999999994 566.3000000000002 383.49999999999994 565.4000000000002 383.49999999999994 564.2000000000002 C 383.49999999999994 563.3000000000002 383.19999999999993 562.6000000000001 381.99999999999994 562.7000000000002 C 381.09999999999997 562.8000000000002 380.09999999999997 562.8000000000002 380.29999999999995 564.0000000000001 z M 374.9 572.6000000000003 C 375 573.4000000000002 375.4 574.3000000000003 376.29999999999995 574.3000000000003 C 377.19999999999993 574.3000000000003 377.4 573.3000000000003 377.49999999999994 572.6000000000003 C 377.79999999999995 571.5000000000002 376.49999999999994 571.8000000000003 376.09999999999997 571.3000000000003 C 375.4 571.6000000000003 374.7 571.8000000000003 374.9 572.6000000000003 z M 383.59999999999997 571.0000000000002 C 383.79999999999995 571.8000000000002 383.9 573.3000000000002 385.29999999999995 573.2000000000003 C 386.49999999999994 573.1000000000003 386.49999999999994 571.9000000000003 386.59999999999997 571.0000000000002 C 386.79999999999995 569.7000000000003 385.9 570.0000000000002 385.09999999999997 570.0000000000002 C 384.29999999999995 569.9000000000002 383.29999999999995 570.1000000000003 383.59999999999997 571.0000000000002 z M 602.4 600.8000000000002 C 600.8 600.8000000000002 599.9 600.6000000000001 599 600.8000000000002 C 592.4 602.7000000000002 585.6 604.1000000000001 578.7 605.1000000000001 C 573.4000000000001 605.9000000000001 568.1 606.6000000000001 562.8000000000001 607.1000000000001 C 558.5000000000001 607.6000000000001 554.2 607.8000000000002 549.8000000000001 608.2000000000002 C 543.5000000000001 608.6000000000001 537.2 608.8000000000002 530.9000000000001 608.7000000000002 C 525.5000000000001 608.5000000000001 520.0000000000001 608.7000000000002 514.6000000000001 608.1000000000001 C 510.20000000000016 607.6000000000001 505.70000000000016 607.6000000000001 501.20000000000016 607.1000000000001 C 495.50000000000017 606.5000000000001 489.90000000000015 605.6000000000001 484.20000000000016 604.9000000000001 C 478.10000000000014 604.1000000000001 472.10000000000014 603.0000000000001 466.10000000000014 601.9000000000001 C 458.90000000000015 600.5000000000001 451.90000000000015 598.7 444.8000000000001 597.0000000000001 C 444.40000000000015 596.6000000000001 443.90000000000015 596.6000000000001 443.40000000000015 596.9000000000001 C 443.8000000000001 597.3000000000001 444.20000000000016 597.1000000000001 444.60000000000014 597.2 C 449.70000000000016 599.8000000000001 455.3000000000001 601 460.70000000000016 602.5 C 473.90000000000015 606.2 487.20000000000016 609.1 500.8000000000002 610.4 C 508.50000000000017 611.1999999999999 516.1000000000001 611.6999999999999 523.7000000000002 612.1 C 532.2000000000002 612.4 540.7000000000002 612 549.2000000000002 611.3000000000001 C 555.3000000000002 610.8000000000001 561.4000000000002 610.2 567.5000000000001 609.3000000000001 C 575.9000000000001 608.0000000000001 584.3000000000001 606.2 592.6000000000001 603.9000000000001 C 595.7000000000002 603.1000000000001 598.9000000000001 602.5000000000001 602.4000000000001 600.8000000000001 z M 609 610.8000000000002 C 608 610.8000000000002 606.8 610.6000000000001 607.1 612.0000000000002 C 607.3000000000001 613.1000000000003 607.4 614.8000000000002 609 614.8000000000002 C 610.2 614.8000000000002 610.4 613.5000000000002 610.6 612.4000000000002 C 610.8000000000001 611.1000000000003 610.2 610.6000000000003 609 610.8000000000002 z M 598 664.7000000000002 C 598 663.9000000000002 597.5 663.8000000000002 596.9 663.8000000000002 C 596 663.8000000000002 596 664.4000000000002 596 665.0000000000002 C 596.1 665.6000000000003 596.1 666.5000000000002 597 666.4000000000002 C 597.8 666.3000000000002 597.9 665.5000000000002 598 664.7000000000002 z M 602.2 659.3000000000002 C 600.9000000000001 659.0000000000002 600.3000000000001 659.6000000000001 600.4000000000001 660.4000000000002 C 600.6000000000001 661.3000000000002 600.8000000000001 662.8000000000002 602.0000000000001 662.8000000000002 C 603.2000000000002 662.8000000000002 603.4000000000001 661.3000000000002 603.6000000000001 660.4000000000002 C 603.9000000000001 659.1000000000003 602.7000000000002 659.4000000000002 602.2000000000002 659.3000000000002 z M 648.8000000000001 380.6000000000002 C 648.7 380.00000000000017 648.2 380.00000000000017 647.8000000000001 380.00000000000017 C 647.7 379.50000000000017 647.4000000000001 379.50000000000017 647.0000000000001 379.6000000000002 Q 647.2000000000002 379.9000000000002 647.4000000000001 380.3000000000002 C 647.7 380.6000000000002 648.1000000000001 381.1000000000002 648.7 380.9000000000002 C 648.7 380.9000000000002 648.8000000000001 380.7000000000002 648.8000000000001 380.6000000000002 z M 675.3000000000001 564.4000000000002 C 676.4000000000001 564.5000000000002 676.1 563.2000000000002 676.7 562.5000000000002 C 676.9000000000001 561.6000000000003 675.9000000000001 561.6000000000003 675.5 561.4000000000002 C 674.8 561.1000000000003 674.2 561.4000000000002 674.1 562.4000000000002 C 673.9 563.4000000000002 674.5 564.3000000000002 675.3000000000001 564.4000000000002 z M 667.8000000000001 576.2000000000002 C 667.9000000000001 577.0000000000001 668.1 578.1000000000001 669.2 578.1000000000001 C 670.5 578.2000000000002 670.7 576.9000000000001 670.8000000000001 576.1000000000001 C 671.0000000000001 574.9000000000001 670.0000000000001 574.9000000000001 669.0000000000001 575.0000000000001 C 668.2000000000002 574.8000000000001 667.5000000000001 575.1000000000001 667.8000000000001 576.2000000000002 z M 701.7 590.8000000000002 C 700.8000000000001 591.3000000000002 700.5 592.0000000000002 700.1 592.7000000000002 C 695.3000000000001 598.6000000000001 690.5 604.4000000000002 685.3000000000001 610.0000000000001 C 680.0000000000001 615.7000000000002 674.1 620.9000000000001 668.2 626.1000000000001 C 664.2 629.6000000000001 659.8000000000001 632.5000000000001 655.8000000000001 636.0000000000001 C 652.2 639.2000000000002 648.7 642.4000000000001 644.8000000000001 645.3000000000001 C 642.6 646.9000000000001 640.5000000000001 648.7 638.3000000000001 650.4000000000001 C 639.7 650.2 640.9000000000001 649.8000000000001 642.1 649.2 C 655.6 642.3000000000001 667.1 632.8000000000001 677.9 622.5 C 683.5 617.3 688.4 611.4 692.8 605.3 C 695.5999999999999 601.4 698.5 597.5 700.4 593.0999999999999 C 701.1999999999999 592.5999999999999 701.6 591.8 701.6999999999999 590.8 z M 704.5 526.2000000000002 C 704.2 527.4000000000002 704.1 528.6000000000001 704 529.7000000000002 C 704 530.3000000000002 704.1 530.9000000000002 703.6 531.1000000000001 C 702.8000000000001 531.5000000000001 702.6 530.7000000000002 702.2 530.3000000000002 C 701.3000000000001 529.5000000000002 700.5 528.6000000000001 699.6 527.8000000000002 C 699.2 527.3000000000002 698.7 527.1000000000001 698.3000000000001 527.5000000000002 C 697.9000000000001 527.9000000000002 698.1 528.5000000000002 698.5000000000001 528.9000000000002 C 699.5000000000001 529.9000000000002 700.6000000000001 530.8000000000002 701.0000000000001 532.3000000000002 C 699.7000000000002 532.3000000000002 698.5000000000001 532.3000000000002 697.3000000000001 532.3000000000002 C 696.7 532.3000000000002 696.0000000000001 532.4000000000002 696.0000000000001 533.1000000000001 C 696.0000000000001 533.7000000000002 696.5000000000001 534.0000000000001 697.2000000000002 534.2000000000002 C 698.7000000000002 534.9000000000002 700.4000000000002 534.4000000000002 702.3000000000002 534.8000000000002 C 701.1000000000001 535.7000000000002 700.1000000000001 536.6000000000001 699.0000000000002 537.3000000000002 C 698.0000000000002 537.9000000000002 697.9000000000002 538.5000000000002 698.5000000000002 539.5000000000002 C 699.2000000000003 540.7000000000003 699.8000000000002 539.6000000000003 700.3000000000002 539.4000000000002 C 701.2000000000002 539.0000000000002 701.9000000000002 538.3000000000002 703.0000000000002 537.5000000000002 C 703.0000000000002 540.0000000000002 703.0000000000002 542.2000000000003 703.0000000000002 544.4000000000002 C 704.7000000000003 542.1000000000003 704.5000000000002 539.4000000000002 705.7000000000003 536.6000000000003 C 707.2000000000003 538.2000000000003 708.4000000000003 539.5000000000002 709.6000000000003 540.8000000000003 Q 709.9000000000002 541.1000000000003 710.2000000000003 541.3000000000003 C 710.4000000000003 540.9000000000003 710.4000000000003 540.6000000000003 709.9000000000003 540.5000000000003 C 708.7000000000003 538.6000000000004 707.5000000000003 536.7000000000004 706.1000000000004 534.6000000000004 C 709.2000000000004 534.7000000000004 712.1000000000004 534.3000000000004 714.9000000000003 533.4000000000003 C 712.8000000000003 533.1000000000004 710.7000000000003 532.9000000000003 708.6000000000004 532.6000000000004 C 709.4000000000003 531.7000000000004 710.0000000000003 531.0000000000003 710.9000000000003 530.0000000000003 C 708.9000000000003 530.1000000000004 707.9000000000003 531.8000000000003 706.4000000000003 531.9000000000003 C 705.9000000000003 530.0000000000003 707.0000000000003 528.2000000000003 706.7000000000003 526.3000000000003 C 706.6000000000003 525.5000000000003 706.7000000000003 524.7000000000003 705.7000000000003 524.7000000000003 C 704.7000000000003 524.6000000000003 704.6000000000003 525.5000000000002 704.5000000000002 526.2000000000003 z M 696.3 518.1000000000001 C 696.4 518.9000000000001 696.9 519.5000000000001 697.5999999999999 519.4000000000001 C 698.3 519.3000000000001 698.4999999999999 518.6000000000001 698.5999999999999 517.8000000000001 C 698.5999999999999 516.8000000000001 697.6999999999999 516.9000000000001 697.1999999999999 516.5000000000001 C 696.4 516.7000000000002 696.1999999999999 517.3000000000001 696.3 518.1000000000001 z M 725.8 454.8000000000001 C 706.3 423.90000000000015 680.0999999999999 400.0000000000001 649.1999999999999 380.9000000000001 C 676.4999999999999 403.80000000000007 702.8 427.5000000000001 725.8 454.80000000000007 z M 704.3 450.3000000000001 Q 704.5 450.2000000000001 704.5999999999999 450.0000000000001 Q 704.4999999999999 449.7000000000001 704.3 449.5000000000001 C 704.1999999999999 449.60000000000014 704 449.7000000000001 704 449.8000000000001 C 704.1 449.90000000000015 704.2 450.10000000000014 704.3 450.3000000000001 z M 726.5999999999999 456.0000000000001 C 726.5999999999999 455.7000000000001 726.4999999999999 455.4000000000001 726.3 455.2000000000001 C 726 455.0000000000001 725.8 455.3000000000001 725.8 455.6000000000001 C 725.6999999999999 455.9000000000001 725.9 456.1000000000001 726.1999999999999 456.30000000000007 C 726.5999999999999 456.4000000000001 726.6999999999999 456.1000000000001 726.5999999999999 456.00000000000006 z M 728.6999999999999 459.7000000000001 C 728.4999999999999 458.3000000000001 727.8 457.3000000000001 726.9999999999999 456.4000000000001 Q 726.6999999999999 456.6000000000001 726.4999999999999 456.80000000000007 Q 727.5999999999999 458.20000000000005 728.6999999999999 459.70000000000005 z" stroke-linecap="round" />
</g>
</svg>